<svg width="22" height="41" viewBox="0 0 22 41" fill="none" xmlns="http://www.w3.org/2000/svg">
<path d="M20.3235 22.3123C18.2028 22.3123 16.1528 22.3123 14.0144 22.3123C14.0144 28.5823 14.0144 34.7647 14.0144 41.0172C11.4342 41.0172 8.96002 41.0172 6.37981 41.0172C6.37981 34.8173 6.37981 28.6173 6.37981 22.3123C5.39015 22.3123 4.48884 22.3123 3.60521 22.3123C2.59787 22.3123 1.59054 22.2948 0.600869 22.3123C0.212071 22.3123 0 22.2423 0 21.7869C0.0176726 19.7028 0.0176726 17.6186 0 15.5345C0 15.0266 0.300434 15.009 0.671559 15.009C2.31511 15.009 3.95867 14.9915 5.58455 15.0266C6.18542 15.0441 6.37981 14.8689 6.37981 14.256C6.37981 12.1017 6.29145 9.93002 6.53887 7.79333C7.05137 3.15215 10.3562 0.174791 15.0394 0.0171658C16.948 -0.0528898 18.8567 0.139763 20.7653 0.174791C21.3308 0.192305 21.5606 0.384957 21.5429 0.997943C21.5076 2.69679 21.5076 4.39564 21.5429 6.09448C21.5606 6.63741 21.3662 6.81255 20.836 6.79504C19.4576 6.77752 18.0968 6.77752 16.7183 6.84758C15.1101 6.97018 14.1381 7.84587 14.0497 9.43963C13.9614 11.2436 14.0321 13.065 14.0321 15.009C15.2338 15.009 16.4179 15.009 17.6196 15.009C18.786 15.009 19.9701 15.009 21.2778 15.009C20.9421 17.4785 20.6416 19.8429 20.3235 22.3123Z" fill="white"/>
</svg>
