<svg width="39" height="39" viewBox="0 0 39 39" fill="none" xmlns="http://www.w3.org/2000/svg">
<path d="M38.7455 11.6622C38.7455 16.7938 38.7455 21.9254 38.7455 27.0569C38.7278 27.197 38.6925 27.3196 38.6748 27.4597C38.5864 28.2128 38.5511 28.9659 38.4274 29.719C38.0209 32.1184 36.9782 34.2026 35.1226 35.8314C33.1079 37.6003 30.6868 38.3184 28.0535 38.4935C27.1346 38.546 26.2333 38.5986 25.3143 38.6511C21.444 38.6511 17.5737 38.6511 13.7034 38.6511C13.4736 38.6336 13.2262 38.5986 12.9965 38.5986C11.459 38.5636 9.90377 38.4935 8.40159 38.1257C5.22052 37.3551 2.87006 35.5687 1.45625 32.6088C0.572624 30.7699 0.325215 28.7908 0.289869 26.7942C0.254524 22.6785 0.219177 18.5452 0.219177 14.4294C0.219177 12.5554 0.254522 10.6639 0.660993 8.82498C1.38557 5.54988 3.18818 3.09794 6.28088 1.64428C8.10116 0.786104 10.0805 0.523396 12.0598 0.488368C17.3793 0.365771 22.7164 0.295715 28.0359 0.558424C29.5911 0.628479 31.1109 0.926215 32.5247 1.57423C36.0592 3.16799 37.9149 5.97021 38.4981 9.70067C38.6218 10.3312 38.6748 10.9967 38.7455 11.6622ZM19.4823 35.2709C19.4823 35.2534 19.4823 35.2359 19.4823 35.2184C20.5073 35.2184 21.55 35.2534 22.575 35.2184C24.7664 35.1483 26.9755 35.1659 29.1493 34.9031C32.1183 34.5354 34.1329 32.8365 34.8575 29.9117C35.1579 28.7207 35.2463 27.4773 35.264 26.2513C35.3347 22.3982 35.3523 18.5627 35.317 14.7096C35.2993 13.1684 35.2286 11.6272 35.0342 10.086C34.6454 7.00353 32.7191 4.91938 29.6264 4.30639C28.301 4.04369 26.9402 3.97363 25.5794 3.9386C21.9565 3.88606 18.3336 3.88606 14.7284 3.92109C13.0318 3.9386 11.3176 3.99115 9.65635 4.25385C6.75804 4.70921 4.83173 6.42558 4.17784 9.29785C3.8774 10.5764 3.80672 11.9424 3.77138 13.256C3.70069 16.3559 3.68302 19.4559 3.71836 22.5559C3.73603 24.6926 3.78905 26.8468 4.01879 28.9659C4.23086 31.1202 5.27354 32.8891 7.21753 34.0275C8.43694 34.728 9.79773 35.0257 11.1762 35.0783C13.9508 35.1483 16.7077 35.2009 19.4823 35.2709Z" fill="white"/>
<path d="M19.5177 29.351C14.0392 29.3335 9.58565 24.92 9.60332 19.5082C9.621 14.0789 14.0922 9.66537 19.553 9.7004C25.0315 9.73543 29.432 14.0964 29.4497 19.5257C29.4497 24.9375 24.9785 29.351 19.5177 29.351ZM13.1025 19.5082C13.1025 23.0285 15.9655 25.8657 19.5177 25.8832C23.0699 25.8832 25.9328 23.0635 25.9505 19.5432C25.9682 16.0054 23.0875 13.1506 19.5177 13.1506C15.9655 13.1506 13.1025 15.9879 13.1025 19.5082Z" fill="white"/>
<path d="M32.1359 9.27996C32.1536 10.541 31.1463 11.5743 29.8738 11.5918C28.5837 11.6093 27.5234 10.5935 27.5234 9.31499C27.5057 8.05399 28.513 7.02067 29.7855 7.00316C31.0932 6.98564 32.1182 7.98393 32.1359 9.27996Z" fill="white"/>
</svg>
