<svg xmlns="http://www.w3.org/2000/svg" viewBox="0 0 801 843" fill="none"><g clip-path="url(#clip0)"><path d="M302.25 75.4599C302.25 75.4599 339.28 -13.6901 558.13 1.80995C688.27 11.0299 790.01 114.16 799.54 244.28C799.68 246.22 800.09 251.13 800.07 253.1C797.13 495.51 767.26 735.9 587.38 732.2C407.5 728.5 302.25 75.4599 302.25 75.4599Z" fill="#DBEFFF"/><path d="M660.06 128.33C652.56 125.69 647.02 112.94 651.28 108.11C656.1 102.65 654.19 90.3698 647 80.6898L643.3 75.7098C636.12 66.0298 626.38 62.6098 621.56 68.0698C617.3 72.8898 607.49 64.9698 606.02 55.5098C604.35 44.7998 596.11 33.6998 587.62 30.7198L583.25 29.1798C574.76 26.1998 569.23 32.4598 570.9 43.1598C572.38 52.6198 564.05 54.1698 557.7 45.6198C550.51 35.9398 540.78 32.5198 535.96 37.9798L533.48 40.7898C528.66 46.2498 530.57 58.5298 537.76 68.2098C544.11 76.7598 542.14 86.8798 534.64 84.2398C526.15 81.2598 520.62 87.5198 522.29 98.2198L523.15 103.73C524.82 114.44 533.06 125.54 541.55 128.52C549.05 131.16 554.59 143.91 550.33 148.74C545.51 154.2 547.42 166.48 554.61 176.16L558.31 181.14C565.5 190.82 575.23 194.24 580.05 188.78C584.31 183.96 594.12 191.88 595.59 201.34C597.26 212.05 605.5 223.15 613.99 226.13L618.36 227.67C626.85 230.65 632.38 224.39 630.71 213.69C629.23 204.23 637.56 202.68 643.91 211.23C651.09 220.91 660.83 224.33 665.65 218.87L668.13 216.06C672.95 210.6 671.04 198.32 663.85 188.64C657.5 180.09 659.47 169.97 666.97 172.61C675.46 175.59 680.99 169.33 679.32 158.63L678.46 153.12C676.79 142.42 668.55 131.32 660.06 128.33ZM608.32 176.55C587.25 169.15 566.81 141.6 562.66 115.03C558.51 88.4598 572.23 72.9198 593.3 80.3198C614.37 87.7198 634.81 115.27 638.96 141.84C643.1 168.42 629.39 183.96 608.32 176.55Z" fill="#AAD1F2"/><path d="M724.76 295.06C719.42 293.18 715.48 284.11 718.51 280.67C721.94 276.78 720.58 268.05 715.46 261.16L712.83 257.61C707.72 250.72 700.79 248.29 697.36 252.17C694.33 255.6 687.35 249.96 686.3 243.23C685.11 235.61 679.25 227.71 673.21 225.59L670.1 224.5C664.06 222.38 660.12 226.83 661.31 234.45C662.36 241.18 656.43 242.28 651.92 236.2C646.81 229.31 639.88 226.88 636.45 230.76L634.68 232.76C631.25 236.65 632.61 245.38 637.73 252.27C642.25 258.36 640.84 265.56 635.51 263.68C629.47 261.56 625.53 266.01 626.72 273.63L627.33 277.55C628.52 285.17 634.38 293.07 640.42 295.19C645.76 297.07 649.7 306.14 646.67 309.58C643.24 313.47 644.6 322.2 649.72 329.09L652.35 332.64C657.46 339.53 664.39 341.96 667.82 338.08C670.85 334.65 677.83 340.29 678.88 347.02C680.07 354.64 685.93 362.54 691.97 364.66L695.08 365.75C701.12 367.87 705.06 363.42 703.87 355.8C702.82 349.07 708.75 347.97 713.26 354.05C718.37 360.94 725.3 363.37 728.73 359.49L730.5 357.49C733.93 353.6 732.57 344.87 727.45 337.98C722.93 331.89 724.34 324.69 729.67 326.57C735.71 328.69 739.65 324.24 738.46 316.62L737.85 312.7C736.67 305.08 730.8 297.18 724.76 295.06ZM687.94 329.37C672.94 324.1 658.4 304.5 655.44 285.59C652.49 266.68 662.25 255.62 677.25 260.89C692.25 266.16 706.79 285.76 709.75 304.67C712.7 323.58 702.93 334.64 687.94 329.37Z" fill="#AAD1F2"/><path d="M644.33 135.46C636.83 132.82 631.29 120.07 635.55 115.24C640.37 109.78 638.46 97.5002 631.27 87.8202L627.57 82.8402C620.39 73.1602 610.65 69.7402 605.83 75.2002C601.57 80.0202 591.76 72.1002 590.29 62.6402C588.62 51.9302 580.38 40.8302 571.89 37.8502L567.52 36.3102C559.03 33.3302 553.5 39.5902 555.17 50.2902C556.65 59.7502 548.32 61.3002 541.97 52.7502C534.78 43.0702 525.05 39.6502 520.23 45.1102L517.75 47.9202C512.93 53.3802 514.84 65.6602 522.03 75.3402C528.38 83.8902 526.41 94.0102 518.91 91.3702C510.42 88.3902 504.89 94.6502 506.56 105.35L507.42 110.86C509.09 121.57 517.33 132.67 525.82 135.65C533.32 138.29 538.86 151.04 534.6 155.87C529.78 161.33 531.69 173.61 538.88 183.29L542.58 188.27C549.77 197.95 559.5 201.37 564.32 195.91C568.58 191.09 578.39 199.01 579.86 208.47C581.53 219.18 589.77 230.28 598.26 233.26L602.63 234.8C611.12 237.78 616.65 231.52 614.98 220.82C613.5 211.36 621.83 209.81 628.18 218.36C635.36 228.04 645.1 231.46 649.92 226L652.4 223.19C657.22 217.73 655.31 205.45 648.12 195.77C641.77 187.22 643.74 177.1 651.24 179.74C659.73 182.72 665.26 176.46 663.59 165.76L662.73 160.25C661.06 149.54 652.82 138.45 644.33 135.46ZM592.59 183.68C571.52 176.28 551.08 148.73 546.93 122.16C542.78 95.5902 556.5 80.0502 577.57 87.4502C598.64 94.8502 619.08 122.4 623.23 148.97C627.38 175.54 613.66 191.08 592.59 183.68Z" fill="#C2E3FF"/><path d="M714.89 301.23C709.55 299.35 705.61 290.28 708.64 286.84C712.07 282.95 710.71 274.22 705.59 267.33L702.96 263.78C697.85 256.89 690.92 254.46 687.49 258.34C684.46 261.77 677.48 256.13 676.43 249.4C675.24 241.78 669.38 233.88 663.34 231.76L660.23 230.67C654.19 228.55 650.25 233 651.44 240.62C652.49 247.35 646.56 248.45 642.05 242.37C636.94 235.48 630.01 233.05 626.58 236.93L624.81 238.93C621.38 242.82 622.74 251.55 627.86 258.44C632.38 264.53 630.97 271.73 625.64 269.85C619.6 267.73 615.66 272.18 616.85 279.8L617.46 283.72C618.65 291.34 624.51 299.24 630.55 301.36C635.89 303.24 639.83 312.31 636.8 315.75C633.37 319.64 634.73 328.37 639.85 335.26L642.48 338.81C647.59 345.7 654.52 348.13 657.95 344.25C660.98 340.82 667.96 346.46 669.01 353.19C670.2 360.81 676.06 368.71 682.1 370.83L685.21 371.92C691.25 374.04 695.19 369.59 694 361.97C692.95 355.24 698.88 354.14 703.39 360.22C708.5 367.11 715.43 369.54 718.86 365.66L720.63 363.66C724.06 359.77 722.7 351.04 717.58 344.15C713.06 338.06 714.47 330.86 719.8 332.74C725.84 334.86 729.78 330.41 728.59 322.79L727.98 318.87C726.8 311.25 720.94 303.35 714.89 301.23ZM678.07 335.54C663.07 330.27 648.53 310.67 645.57 291.76C642.62 272.85 652.38 261.79 667.38 267.06C682.38 272.33 696.92 291.93 699.88 310.84C702.83 329.75 693.06 340.81 678.07 335.54Z" fill="#C2E3FF"/><path d="M580.33 753.34L692.1 686.21C701.63 680.32 701.51 666.43 691.88 660.71L360.45 463.65L316.89 601.43L580.33 753.34Z" fill="#B5D0F2"/><path d="M564.16 762.71L331.21 608.23C316.64 599.82 304.83 577.25 304.83 557.83V49.3898C304.83 29.9598 316.64 21.0398 331.21 29.4498L574.43 169.87C589 178.28 600.81 200.85 600.81 220.27V726.31C600.81 739.09 596.03 744.42 587.99 749.06L564.16 762.71Z" fill="#A8C9ED"/><path d="M429.43 285.08C429.43 285.08 304.72 576.75 304.72 557.32L284.23 43.1798L314.8 27.0398C319.29 24.9298 324.94 25.3898 331.09 28.9398L574.31 169.36C581.42 173.47 587.88 180.95 592.63 189.79L429.43 285.08Z" fill="#EBF3FF"/><path d="M549.93 761.06L307.3 620.64C292.73 612.23 281.52 589.66 281.52 570.24V61.7897C281.52 42.3597 293.02 33.4397 307.59 41.8497L550.08 182.27C564.65 190.68 575.73 213.25 575.73 232.67V741.11C575.73 760.55 564.5 769.47 549.93 761.06Z" fill="white"/><path d="M545.06 762.86L302.44 622.44C287.87 614.03 276.66 591.46 276.66 572.04V63.59C276.66 44.16 288.16 35.24 302.73 43.65L545.22 184.07C559.79 192.48 570.87 215.05 570.87 234.47V742.91C570.86 762.35 559.63 771.28 545.06 762.86Z" fill="#2C1F9C"/><path d="M538.33 675.97L301.77 539.4C299.31 537.98 297.79 535.35 297.79 532.51V103.13C297.79 97.0098 304.42 93.1798 309.72 96.2398L546.28 232.82C548.74 234.24 550.26 236.87 550.26 239.71V669.09C550.26 675.21 543.63 679.04 538.33 675.97Z" fill="#699EFF"/><path d="M465.12 170.92L390.1 127.6C387.47 126.08 385.31 121.97 385.31 118.46C385.31 114.95 387.46 113.32 390.1 114.84L465.12 158.16C467.75 159.68 469.91 163.79 469.91 167.3C469.91 170.81 467.75 172.44 465.12 170.92Z" fill="#4A3EB5"/><path d="M587.38 303.98C583.4 305.67 580.14 303.55 580.14 299.25V270.3C580.14 266.01 583.4 261.11 587.38 259.41C591.36 257.72 594.62 259.84 594.62 264.14V293.09C594.62 297.38 591.36 302.28 587.38 303.98Z" fill="#E6F0FF"/><path d="M590.49 304.37C586.51 306.06 583.25 303.94 583.25 299.64V270.69C583.25 266.4 586.51 261.5 590.49 259.8C594.47 258.11 597.73 260.23 597.73 264.53V293.48C597.72 297.77 594.47 302.67 590.49 304.37Z" fill="#6899E3"/><path d="M587.38 356.68C583.4 358.37 580.14 356.25 580.14 351.95V323C580.14 318.71 583.4 313.81 587.38 312.11C591.36 310.42 594.62 312.54 594.62 316.84V345.79C594.62 350.08 591.36 354.98 587.38 356.68Z" fill="#E6F0FF"/><path d="M590.49 357.06C586.51 358.75 583.25 356.63 583.25 352.33V323.38C583.25 319.09 586.51 314.19 590.49 312.49C594.47 310.8 597.73 312.92 597.73 317.22V346.17C597.72 350.47 594.47 355.37 590.49 357.06Z" fill="#6899E3"/><path d="M305.02 123.45C305.25 113.73 308.55 110.27 313.83 113.19C319.07 116.09 322.12 123.08 321.89 132.8C321.66 142.52 318.36 146.17 313.12 143.26C307.84 140.34 304.79 133.17 305.02 123.45ZM318.59 130.97C318.79 122.48 316.81 117.88 313.76 116.19C310.67 114.48 308.52 116.79 308.32 125.28C308.12 133.77 310.1 138.55 313.19 140.26C316.24 141.96 318.39 139.47 318.59 130.97Z" fill="#5C95FF"/><path d="M325.52 134.81C325.75 125.09 329.05 121.63 334.33 124.55C339.57 127.45 342.62 134.44 342.39 144.16C342.16 153.88 338.86 157.53 333.62 154.62C328.34 151.7 325.29 144.53 325.52 134.81ZM339.09 142.33C339.29 133.84 337.31 129.24 334.26 127.55C331.17 125.84 329.02 128.14 328.82 136.64C328.62 145.13 330.6 149.91 333.69 151.62C336.74 153.32 338.89 150.83 339.09 142.33Z" fill="#5C95FF"/><path d="M346.02 146.17C346.25 136.45 349.55 132.99 354.83 135.91C360.07 138.81 363.12 145.8 362.89 155.52C362.66 165.24 359.36 168.89 354.12 165.98C348.84 163.06 345.79 155.89 346.02 146.17ZM359.59 153.69C359.79 145.2 357.81 140.6 354.76 138.91C351.67 137.2 349.52 139.51 349.32 148C349.12 156.49 351.1 161.27 354.19 162.98C357.24 164.68 359.39 162.19 359.59 153.69Z" fill="#5C95FF"/><path d="M366.52 157.53C366.75 147.81 370.05 144.35 375.33 147.27C380.57 150.17 383.62 157.16 383.39 166.88C383.16 176.6 379.86 180.25 374.62 177.34C369.34 174.42 366.29 167.25 366.52 157.53ZM380.09 165.05C380.29 156.56 378.31 151.96 375.26 150.27C372.17 148.56 370.02 150.86 369.82 159.36C369.62 167.85 371.6 172.63 374.69 174.34C377.75 176.04 379.89 173.55 380.09 165.05Z" fill="#5C95FF"/><path d="M388.19 181.18L394.21 184.52L394.71 163.17L389.92 160.52L389.98 158.11C392.38 158.98 394.13 159.21 395.6 159.06L398.2 160.5L397.59 186.39L403.04 189.41L402.97 192.5L388.12 184.27L388.19 181.18Z" fill="#5C95FF"/><path d="M408.7 192.54L414.72 195.88L415.22 174.53L410.43 171.88L410.49 169.47C412.89 170.34 414.64 170.57 416.11 170.42L418.71 171.86L418.1 197.75L423.54 200.77L423.47 203.86L408.62 195.63L408.7 192.54Z" fill="#5C95FF"/><path d="M429.2 203.9L435.22 207.24L435.72 185.89L430.93 183.24L430.99 180.83C433.39 181.7 435.14 181.93 436.61 181.78L439.21 183.22L438.6 209.11L444.05 212.13L443.98 215.22L429.13 206.99L429.2 203.9Z" fill="#5C95FF"/><path d="M448.53 202.97C448.76 193.25 452.06 189.79 457.34 192.71C462.58 195.61 465.63 202.6 465.4 212.32C465.17 222.04 461.87 225.69 456.63 222.78C451.34 219.85 448.3 212.69 448.53 202.97ZM462.1 210.49C462.3 202 460.32 197.4 457.27 195.71C454.18 194 452.03 196.3 451.83 204.8C451.63 213.29 453.61 218.07 456.7 219.78C459.75 221.47 461.9 218.98 462.1 210.49Z" fill="#5C95FF"/><path d="M469.03 214.33C469.26 204.61 472.56 201.15 477.84 204.07C483.08 206.97 486.13 213.96 485.9 223.68C485.67 233.4 482.37 237.05 477.13 234.14C471.85 231.21 468.8 224.05 469.03 214.33ZM482.6 221.85C482.8 213.36 480.82 208.76 477.77 207.07C474.68 205.36 472.53 207.67 472.33 216.16C472.13 224.65 474.11 229.43 477.2 231.14C480.25 232.83 482.4 230.34 482.6 221.85Z" fill="#5C95FF"/><path d="M489.53 225.69C489.76 215.97 493.06 212.51 498.34 215.43C503.58 218.33 506.63 225.32 506.4 235.04C506.17 244.76 502.86 248.41 497.63 245.5C492.35 242.57 489.3 235.41 489.53 225.69ZM503.1 233.21C503.3 224.72 501.32 220.12 498.27 218.43C495.18 216.72 493.03 219.02 492.83 227.52C492.63 236.01 494.61 240.79 497.7 242.5C500.75 244.19 502.9 241.7 503.1 233.21Z" fill="#5C95FF"/><path d="M510.03 237.05C510.26 227.33 513.56 223.87 518.84 226.79C524.08 229.69 527.13 236.68 526.9 246.4C526.67 256.12 523.37 259.77 518.13 256.86C512.85 253.93 509.8 246.77 510.03 237.05ZM523.6 244.57C523.8 236.08 521.82 231.48 518.77 229.79C515.68 228.08 513.53 230.39 513.33 238.88C513.13 247.37 515.11 252.15 518.2 253.86C521.25 255.55 523.4 253.06 523.6 244.57Z" fill="#5C95FF"/><path d="M531.7 260.7L537.72 264.04L538.22 242.69L533.43 240.04L533.49 237.63C535.89 238.5 537.64 238.73 539.11 238.58L541.71 240.02L541.1 265.91L546.55 268.93L546.48 272.02L531.63 263.79L531.7 260.7Z" fill="#5C95FF"/><path d="M304.9 190.26L310.92 193.6L311.42 172.25L306.63 169.6L306.69 167.19C309.09 168.06 310.84 168.29 312.31 168.14L314.91 169.58L314.3 195.47L319.75 198.49L319.68 201.58L304.83 193.35L304.9 190.26Z" fill="#5C95FF"/><path d="M324.23 189.33C324.46 179.61 327.76 176.15 333.04 179.07C338.28 181.97 341.33 188.96 341.1 198.68C340.87 208.4 337.57 212.04 332.33 209.14C327.05 206.21 324 199.05 324.23 189.33ZM337.8 196.85C338 188.36 336.02 183.76 332.97 182.07C329.88 180.36 327.73 182.67 327.53 191.16C327.33 199.65 329.31 204.43 332.4 206.14C335.45 207.83 337.6 205.34 337.8 196.85Z" fill="#5C95FF"/><path d="M344.73 200.68C344.96 190.96 348.26 187.5 353.54 190.42C358.78 193.32 361.83 200.31 361.6 210.03C361.37 219.75 358.07 223.4 352.83 220.49C347.55 217.57 344.5 210.4 344.73 200.68ZM358.31 208.21C358.51 199.72 356.53 195.12 353.48 193.43C350.39 191.72 348.24 194.02 348.04 202.52C347.84 211.01 349.82 215.79 352.91 217.5C355.96 219.19 358.1 216.7 358.31 208.21Z" fill="#5C95FF"/><path d="M366.41 224.34L372.43 227.68L372.93 206.33L368.15 203.68L368.21 201.27C370.61 202.14 372.36 202.37 373.83 202.22L376.43 203.66L375.82 229.55L381.26 232.57L381.19 235.66L366.34 227.43L366.41 224.34Z" fill="#5C95FF"/><path d="M386.91 235.7L392.93 239.04L393.43 217.69L388.64 215.04L388.7 212.63C391.1 213.5 392.85 213.73 394.32 213.58L396.92 215.02L396.31 240.91L401.76 243.93L401.69 247.02L386.84 238.79L386.91 235.7Z" fill="#5C95FF"/><path d="M406.24 234.76C406.47 225.04 409.77 221.58 415.05 224.5C420.29 227.4 423.34 234.39 423.11 244.11C422.88 253.83 419.58 257.47 414.34 254.57C409.05 251.65 406.01 244.48 406.24 234.76ZM419.81 242.28C420.01 233.79 418.03 229.19 414.98 227.5C411.89 225.79 409.74 228.1 409.54 236.59C409.34 245.08 411.32 249.86 414.41 251.57C417.46 253.27 419.61 250.78 419.81 242.28Z" fill="#5C95FF"/><path d="M427.91 258.41L433.93 261.75L434.43 240.4L429.64 237.75L429.7 235.34C432.1 236.21 433.85 236.44 435.32 236.29L437.92 237.73L437.31 263.62L442.75 266.64L442.68 269.73L427.83 261.5L427.91 258.41Z" fill="#5C95FF"/><path d="M447.24 257.48C447.47 247.76 450.77 244.3 456.05 247.22C461.29 250.12 464.34 257.11 464.11 266.83C463.88 276.55 460.58 280.19 455.34 277.29C450.06 274.37 447.01 267.2 447.24 257.48ZM460.81 265C461.01 256.51 459.03 251.91 455.98 250.22C452.89 248.51 450.74 250.82 450.54 259.31C450.34 267.8 452.32 272.58 455.41 274.29C458.46 275.99 460.61 273.5 460.81 265Z" fill="#5C95FF"/><path d="M468.91 281.13L474.93 284.47L475.43 263.12L470.64 260.47L470.7 258.06C473.1 258.93 474.85 259.16 476.32 259.01L478.92 260.45L478.31 286.34L483.75 289.36L483.68 292.45L468.83 284.22L468.91 281.13Z" fill="#5C95FF"/><path d="M488.24 280.2C488.47 270.48 491.77 267.02 497.05 269.94C502.29 272.84 505.34 279.83 505.11 289.55C504.88 299.27 501.57 302.91 496.34 300.01C491.06 297.08 488.01 289.92 488.24 280.2ZM501.81 287.72C502.01 279.23 500.03 274.63 496.98 272.94C493.89 271.23 491.74 273.54 491.54 282.03C491.34 290.52 493.32 295.3 496.41 297.01C499.46 298.7 501.61 296.21 501.81 287.72Z" fill="#5C95FF"/><path d="M509.91 303.85L515.93 307.19L516.43 285.84L511.64 283.19L511.7 280.78C514.1 281.65 515.85 281.88 517.32 281.73L519.92 283.17L519.31 309.06L524.75 312.08L524.68 315.17L509.83 306.94L509.91 303.85Z" fill="#5C95FF"/><path d="M529.24 302.92C529.47 293.2 532.77 289.74 538.05 292.66C543.29 295.56 546.34 302.55 546.11 312.27C545.88 321.99 542.57 325.63 537.34 322.73C532.06 319.8 529.01 312.64 529.24 302.92ZM542.81 310.44C543.01 301.95 541.03 297.35 537.98 295.66C534.89 293.95 532.74 296.26 532.54 304.75C532.34 313.24 534.32 318.02 537.41 319.73C540.46 321.42 542.61 318.93 542.81 310.44Z" fill="#5C95FF"/><path d="M303.61 244.77L309.63 248.11L310.13 226.76L305.34 224.11L305.4 221.7C307.8 222.57 309.55 222.8 311.02 222.65L313.62 224.09L313.01 249.98L318.46 253L318.39 256.09L303.54 247.86L303.61 244.77Z" fill="#5C95FF"/><path d="M324.12 256.13L330.14 259.47L330.64 238.12L325.86 235.47L325.92 233.06C328.32 233.93 330.07 234.16 331.54 234.01L334.14 235.45L333.53 261.34L338.97 264.36L338.9 267.45L324.05 259.22L324.12 256.13Z" fill="#5C95FF"/><path d="M343.44 255.2C343.67 245.48 346.97 242.02 352.25 244.94C357.49 247.84 360.54 254.83 360.31 264.55C360.08 274.27 356.78 277.92 351.54 275.01C346.26 272.08 343.21 264.92 343.44 255.2ZM357.02 262.72C357.22 254.23 355.24 249.63 352.19 247.94C349.1 246.23 346.95 248.54 346.75 257.03C346.55 265.52 348.53 270.3 351.62 272.01C354.67 273.7 356.82 271.21 357.02 262.72Z" fill="#5C95FF"/><path d="M365.12 278.85L371.14 282.19L371.64 260.84L366.86 258.19L366.92 255.78C369.32 256.65 371.07 256.88 372.54 256.73L375.14 258.17L374.53 284.06L379.98 287.08L379.91 290.17L365.06 281.94L365.12 278.85Z" fill="#5C95FF"/><path d="M384.45 277.92C384.68 268.2 387.98 264.74 393.26 267.66C398.5 270.56 401.55 277.55 401.32 287.27C401.09 296.99 397.79 300.64 392.55 297.73C387.26 294.8 384.22 287.64 384.45 277.92ZM398.02 285.43C398.22 276.94 396.24 272.34 393.19 270.65C390.1 268.94 387.95 271.25 387.75 279.74C387.55 288.23 389.53 293.01 392.62 294.72C395.67 296.42 397.82 293.93 398.02 285.43Z" fill="#5C95FF"/><path d="M404.95 289.27C405.18 279.55 408.48 276.09 413.76 279.01C419 281.91 422.05 288.9 421.82 298.62C421.59 308.34 418.29 311.99 413.05 309.08C407.77 306.16 404.72 298.99 404.95 289.27ZM418.52 296.79C418.72 288.3 416.74 283.7 413.69 282.01C410.6 280.3 408.45 282.6 408.25 291.1C408.05 299.59 410.03 304.37 413.12 306.08C416.17 307.78 418.32 305.29 418.52 296.79Z" fill="#5C95FF"/><path d="M426.62 312.92L432.64 316.26L433.14 294.91L428.35 292.26L428.41 289.85C430.81 290.72 432.56 290.95 434.03 290.8L436.63 292.24L436.02 318.13L441.46 321.15L441.39 324.24L426.54 316.01L426.62 312.92Z" fill="#5C95FF"/><path d="M447.12 324.28L453.14 327.62L453.64 306.27L448.85 303.62L448.91 301.21C451.31 302.08 453.06 302.31 454.53 302.16L457.13 303.6L456.52 329.49L461.97 332.51L461.9 335.6L447.05 327.37L447.12 324.28Z" fill="#5C95FF"/><path d="M467.62 335.64L473.64 338.98L474.14 317.63L469.35 314.98L469.41 312.57C471.81 313.44 473.56 313.67 475.03 313.52L477.63 314.96L477.02 340.85L482.46 343.87L482.39 346.96L467.54 338.73L467.62 335.64Z" fill="#5C95FF"/><path d="M486.95 334.71C487.18 324.99 490.48 321.53 495.76 324.45C501 327.35 504.05 334.34 503.82 344.06C503.59 353.78 500.28 357.43 495.05 354.52C489.77 351.6 486.72 344.43 486.95 334.71ZM500.52 342.23C500.72 333.74 498.74 329.14 495.69 327.45C492.6 325.74 490.45 328.04 490.25 336.54C490.05 345.03 492.03 349.81 495.12 351.52C498.17 353.22 500.32 350.73 500.52 342.23Z" fill="#5C95FF"/><path d="M507.45 346.07C507.68 336.35 510.98 332.89 516.26 335.81C521.5 338.71 524.55 345.7 524.32 355.42C524.09 365.14 520.79 368.78 515.55 365.88C510.27 362.96 507.22 355.79 507.45 346.07ZM521.02 353.59C521.22 345.1 519.24 340.5 516.19 338.81C513.1 337.1 510.95 339.41 510.75 347.9C510.55 356.39 512.53 361.17 515.62 362.88C518.67 364.58 520.82 362.08 521.02 353.59Z" fill="#5C95FF"/><path d="M529.12 369.72L535.14 373.06L535.64 351.71L530.85 349.06L530.91 346.65C533.31 347.52 535.06 347.75 536.53 347.6L539.13 349.04L538.52 374.93L543.97 377.95L543.9 381.04L529.05 372.81L529.12 369.72Z" fill="#5C95FF"/><path d="M302.33 299.28L308.35 302.62L308.85 281.27L304.06 278.62L304.12 276.21C306.52 277.08 308.27 277.31 309.74 277.16L312.34 278.6L311.73 304.49L317.18 307.51L317.11 310.6L302.26 302.37L302.33 299.28Z" fill="#5C95FF"/><path d="M321.65 298.35C321.88 288.63 325.18 285.17 330.46 288.09C335.7 290.99 338.75 297.98 338.52 307.7C338.29 317.42 334.99 321.06 329.75 318.16C324.47 315.23 321.42 308.07 321.65 298.35ZM335.23 305.87C335.43 297.38 333.45 292.78 330.4 291.09C327.31 289.38 325.16 291.69 324.96 300.18C324.76 308.67 326.74 313.45 329.83 315.16C332.88 316.85 335.03 314.36 335.23 305.87Z" fill="#5C95FF"/><path d="M342.15 309.71C342.38 299.99 345.68 296.53 350.96 299.45C356.2 302.35 359.25 309.34 359.02 319.06C358.79 328.78 355.49 332.42 350.25 329.52C344.97 326.59 341.93 319.43 342.15 309.71ZM355.73 317.23C355.93 308.74 353.95 304.14 350.9 302.45C347.81 300.74 345.66 303.04 345.46 311.54C345.26 320.03 347.24 324.81 350.33 326.52C353.38 328.21 355.53 325.72 355.73 317.23Z" fill="#5C95FF"/><path d="M362.66 321.07C362.89 311.35 366.19 307.89 371.47 310.81C376.71 313.71 379.76 320.7 379.53 330.42C379.3 340.14 376 343.78 370.76 340.88C365.47 337.95 362.43 330.79 362.66 321.07ZM376.23 328.59C376.43 320.1 374.45 315.5 371.4 313.81C368.31 312.1 366.16 314.41 365.96 322.9C365.76 331.39 367.74 336.17 370.83 337.88C373.88 339.57 376.03 337.08 376.23 328.59Z" fill="#5C95FF"/><path d="M384.33 344.72L390.35 348.06L390.85 326.71L386.06 324.06L386.12 321.65C388.52 322.52 390.27 322.75 391.74 322.6L394.34 324.04L393.73 349.93L399.17 352.95L399.1 356.04L384.25 347.81L384.33 344.72Z" fill="#5C95FF"/><path d="M403.66 343.79C403.89 334.07 407.19 330.61 412.47 333.53C417.71 336.43 420.76 343.42 420.53 353.14C420.3 362.86 417 366.5 411.76 363.6C406.48 360.67 403.43 353.51 403.66 343.79ZM417.23 351.31C417.43 342.82 415.45 338.22 412.4 336.53C409.31 334.82 407.16 337.13 406.96 345.62C406.76 354.11 408.74 358.89 411.83 360.6C414.88 362.29 417.03 359.8 417.23 351.31Z" fill="#5C95FF"/><path d="M425.33 367.44L431.35 370.78L431.85 349.43L427.06 346.78L427.12 344.37C429.52 345.24 431.27 345.47 432.74 345.32L435.34 346.76L434.73 372.65L440.18 375.67L440.11 378.76L425.26 370.53L425.33 367.44Z" fill="#5C95FF"/><path d="M444.66 366.5C444.89 356.78 448.19 353.32 453.47 356.24C458.71 359.14 461.76 366.13 461.53 375.85C461.3 385.57 458 389.21 452.76 386.31C447.48 383.39 444.43 376.22 444.66 366.5ZM458.23 374.02C458.43 365.53 456.45 360.93 453.4 359.24C450.31 357.53 448.16 359.84 447.96 368.33C447.76 376.82 449.74 381.6 452.83 383.31C455.88 385.01 458.03 382.52 458.23 374.02Z" fill="#5C95FF"/><path d="M465.16 377.86C465.39 368.14 468.69 364.68 473.97 367.6C479.21 370.5 482.26 377.49 482.03 387.21C481.8 396.93 478.5 400.58 473.26 397.67C467.98 394.75 464.93 387.58 465.16 377.86ZM478.73 385.38C478.93 376.89 476.95 372.29 473.9 370.6C470.81 368.89 468.66 371.19 468.46 379.69C468.26 388.18 470.24 392.96 473.33 394.67C476.38 396.37 478.53 393.88 478.73 385.38Z" fill="#5C95FF"/><path d="M486.83 401.51L492.85 404.85L493.35 383.5L488.56 380.85L488.62 378.44C491.02 379.31 492.77 379.54 494.24 379.39L496.84 380.83L496.23 406.72L501.68 409.74L501.61 412.83L486.76 404.6L486.83 401.51Z" fill="#5C95FF"/><path d="M506.16 400.58C506.39 390.86 509.69 387.4 514.97 390.32C520.21 393.22 523.26 400.21 523.03 409.93C522.8 419.65 519.5 423.3 514.26 420.39C508.98 417.47 505.93 410.3 506.16 400.58ZM519.73 408.1C519.93 399.61 517.95 395.01 514.9 393.32C511.81 391.61 509.66 393.91 509.46 402.41C509.26 410.9 511.24 415.68 514.33 417.39C517.38 419.09 519.53 416.6 519.73 408.1Z" fill="#5C95FF"/><path d="M526.66 411.94C526.89 402.22 530.19 398.76 535.47 401.68C540.71 404.58 543.76 411.57 543.53 421.29C543.3 431.01 539.99 434.65 534.76 431.75C529.48 428.83 526.43 421.66 526.66 411.94ZM540.24 419.46C540.44 410.97 538.46 406.37 535.41 404.68C532.32 402.97 530.17 405.28 529.97 413.77C529.77 422.26 531.75 427.04 534.84 428.75C537.89 430.45 540.03 427.96 540.24 419.46Z" fill="#5C95FF"/><path d="M301.04 353.79L307.06 357.13L307.56 335.78L302.77 333.13L302.83 330.72C305.23 331.59 306.98 331.82 308.45 331.67L311.05 333.11L310.44 359L315.89 362.02L315.82 365.11L300.97 356.88L301.04 353.79Z" fill="#5C95FF"/><path d="M321.54 365.15L327.56 368.49L328.06 347.14L323.28 344.49L323.34 342.08C325.74 342.95 327.49 343.18 328.96 343.03L331.56 344.47L330.95 370.36L336.39 373.38L336.32 376.47L321.47 368.24L321.54 365.15Z" fill="#5C95FF"/><path d="M340.87 364.22C341.1 354.5 344.4 351.04 349.68 353.96C354.92 356.86 357.97 363.85 357.74 373.57C357.51 383.29 354.21 386.94 348.97 384.03C343.69 381.1 340.64 373.94 340.87 364.22ZM354.44 371.74C354.64 363.25 352.66 358.65 349.61 356.96C346.52 355.25 344.37 357.56 344.17 366.05C343.97 374.54 345.95 379.32 349.04 381.03C352.09 382.72 354.24 380.23 354.44 371.74Z" fill="#5C95FF"/><path d="M361.37 375.58C361.6 365.86 364.9 362.4 370.18 365.32C375.42 368.22 378.47 375.21 378.24 384.93C378.01 394.65 374.71 398.29 369.47 395.39C364.19 392.46 361.14 385.3 361.37 375.58ZM374.94 383.1C375.14 374.61 373.16 370.01 370.11 368.32C367.02 366.61 364.87 368.91 364.67 377.41C364.47 385.9 366.45 390.68 369.54 392.39C372.59 394.08 374.74 391.59 374.94 383.1Z" fill="#5C95FF"/><path d="M381.87 386.94C382.1 377.22 385.4 373.76 390.68 376.68C395.92 379.58 398.97 386.57 398.74 396.29C398.51 406.01 395.21 409.66 389.97 406.75C384.69 403.82 381.64 396.66 381.87 386.94ZM395.44 394.46C395.64 385.97 393.66 381.37 390.61 379.68C387.52 377.97 385.37 380.28 385.17 388.77C384.97 397.26 386.95 402.04 390.04 403.75C393.09 405.44 395.24 402.95 395.44 394.46Z" fill="#5C95FF"/><path d="M403.54 410.59L409.56 413.93L410.06 392.58L405.27 389.93L405.33 387.52C407.73 388.39 409.48 388.62 410.95 388.47L413.55 389.91L412.94 415.8L418.38 418.82L418.31 421.91L403.46 413.68L403.54 410.59Z" fill="#5C95FF"/><path d="M422.87 409.66C423.1 399.94 426.4 396.48 431.68 399.4C436.92 402.3 439.97 409.29 439.74 419.01C439.51 428.73 436.21 432.38 430.97 429.47C425.69 426.54 422.64 419.38 422.87 409.66ZM436.44 417.18C436.64 408.69 434.66 404.09 431.61 402.4C428.52 400.69 426.37 403 426.17 411.49C425.97 419.98 427.95 424.76 431.04 426.47C434.09 428.16 436.24 425.67 436.44 417.18Z" fill="#5C95FF"/><path d="M444.54 433.31L450.56 436.65L451.06 415.3L446.27 412.65L446.33 410.24C448.73 411.11 450.48 411.34 451.95 411.19L454.55 412.63L453.94 438.52L459.39 441.54L459.32 444.63L444.47 436.4L444.54 433.31Z" fill="#5C95FF"/><path d="M465.04 444.67L471.06 448.01L471.56 426.66L466.77 424.01L466.83 421.6C469.23 422.47 470.98 422.7 472.45 422.55L475.05 423.99L474.44 449.88L479.89 452.9L479.82 455.99L464.97 447.76L465.04 444.67Z" fill="#5C95FF"/><path d="M485.55 456.03L491.57 459.37L492.07 438.02L487.28 435.37L487.34 432.96C489.74 433.83 491.49 434.06 492.96 433.91L495.56 435.35L494.95 461.24L500.4 464.26L500.33 467.35L485.48 459.12L485.55 456.03Z" fill="#5C95FF"/><path d="M506.05 467.39L512.07 470.73L512.57 449.38L507.78 446.73L507.84 444.32C510.24 445.19 511.99 445.42 513.46 445.27L516.06 446.71L515.45 472.6L520.89 475.62L520.82 478.71L505.97 470.48L506.05 467.39Z" fill="#5C95FF"/><path d="M525.37 466.45C525.6 456.73 528.9 453.27 534.18 456.19C539.42 459.09 542.47 466.08 542.24 475.8C542.01 485.52 538.7 489.17 533.47 486.26C528.19 483.34 525.14 476.17 525.37 466.45ZM538.95 473.97C539.15 465.48 537.17 460.88 534.12 459.19C531.03 457.48 528.88 459.78 528.68 468.28C528.48 476.77 530.46 481.55 533.55 483.26C536.6 484.96 538.75 482.47 538.95 473.97Z" fill="#5C95FF"/><path d="M304.9 414.02L310.92 417.36L311.42 396.01L306.63 393.36L306.69 390.95C309.09 391.82 310.84 392.05 312.31 391.9L314.91 393.34L314.3 419.23L319.75 422.25L319.68 425.34L304.83 417.11L304.9 414.02Z" fill="#5C95FF"/><path d="M324.23 413.08C324.46 403.36 327.76 399.9 333.04 402.82C338.28 405.72 341.33 412.71 341.1 422.43C340.87 432.15 337.57 435.79 332.33 432.89C327.05 429.97 324 422.8 324.23 413.08ZM337.8 420.6C338 412.11 336.02 407.51 332.97 405.82C329.88 404.11 327.73 406.42 327.53 414.91C327.33 423.4 329.31 428.18 332.4 429.89C335.45 431.59 337.6 429.1 337.8 420.6Z" fill="#5C95FF"/><path d="M344.73 424.44C344.96 414.72 348.26 411.26 353.54 414.18C358.78 417.08 361.83 424.07 361.6 433.79C361.37 443.51 358.07 447.15 352.83 444.25C347.55 441.33 344.5 434.16 344.73 424.44ZM358.31 431.96C358.51 423.47 356.53 418.87 353.48 417.18C350.39 415.47 348.24 417.77 348.04 426.27C347.84 434.76 349.82 439.54 352.91 441.25C355.96 442.95 358.1 440.46 358.31 431.96Z" fill="#5C95FF"/><path d="M366.41 448.09L372.43 451.43L372.93 430.08L368.15 427.43L368.21 425.02C370.61 425.89 372.36 426.12 373.83 425.97L376.43 427.41L375.82 453.3L381.26 456.32L381.19 459.41L366.34 451.18L366.41 448.09Z" fill="#5C95FF"/><path d="M386.91 459.45L392.93 462.79L393.43 441.44L388.64 438.79L388.7 436.38C391.1 437.25 392.85 437.48 394.32 437.33L396.92 438.77L396.31 464.66L401.76 467.68L401.69 470.77L386.84 462.54L386.91 459.45Z" fill="#5C95FF"/><path d="M406.24 458.52C406.47 448.8 409.77 445.34 415.05 448.26C420.29 451.16 423.34 458.15 423.11 467.87C422.88 477.59 419.58 481.23 414.34 478.33C409.05 475.41 406.01 468.24 406.24 458.52ZM419.81 466.04C420.01 457.55 418.03 452.95 414.98 451.26C411.89 449.55 409.74 451.86 409.54 460.35C409.34 468.84 411.32 473.62 414.41 475.33C417.46 477.03 419.61 474.53 419.81 466.04Z" fill="#5C95FF"/><path d="M427.91 482.17L433.93 485.51L434.43 464.16L429.64 461.51L429.7 459.1C432.1 459.97 433.85 460.2 435.32 460.05L437.92 461.49L437.31 487.38L442.75 490.4L442.68 493.49L427.83 485.26L427.91 482.17Z" fill="#5C95FF"/><path d="M447.24 481.24C447.47 471.52 450.77 468.06 456.05 470.98C461.29 473.88 464.34 480.87 464.11 490.59C463.88 500.31 460.58 503.95 455.34 501.05C450.06 498.12 447.01 490.96 447.24 481.24ZM460.81 488.76C461.01 480.27 459.03 475.67 455.98 473.98C452.89 472.27 450.74 474.58 450.54 483.07C450.34 491.56 452.32 496.34 455.41 498.05C458.46 499.74 460.61 497.25 460.81 488.76Z" fill="#5C95FF"/><path d="M468.91 504.89L474.93 508.23L475.43 486.88L470.64 484.23L470.7 481.82C473.1 482.69 474.85 482.92 476.32 482.77L478.92 484.21L478.31 510.1L483.75 513.12L483.68 516.21L468.83 507.98L468.91 504.89Z" fill="#5C95FF"/><path d="M488.24 503.96C488.47 494.24 491.77 490.78 497.05 493.7C502.29 496.6 505.34 503.59 505.11 513.31C504.88 523.03 501.57 526.67 496.34 523.77C491.06 520.84 488.01 513.68 488.24 503.96ZM501.81 511.48C502.01 502.99 500.03 498.39 496.98 496.7C493.89 494.99 491.74 497.3 491.54 505.79C491.34 514.28 493.32 519.06 496.41 520.77C499.46 522.46 501.61 519.97 501.81 511.48Z" fill="#5C95FF"/><path d="M509.91 527.61L515.93 530.95L516.43 509.6L511.64 506.95L511.7 504.54C514.1 505.41 515.85 505.64 517.32 505.49L519.92 506.93L519.31 532.82L524.75 535.84L524.68 538.93L509.83 530.7L509.91 527.61Z" fill="#5C95FF"/><path d="M529.24 526.68C529.47 516.96 532.77 513.5 538.05 516.42C543.29 519.32 546.34 526.31 546.11 536.03C545.88 545.75 542.57 549.39 537.34 546.49C532.06 543.56 529.01 536.4 529.24 526.68ZM542.81 534.2C543.01 525.71 541.03 521.11 537.98 519.42C534.89 517.71 532.74 520.02 532.54 528.51C532.34 537 534.32 541.78 537.41 543.49C540.46 545.18 542.61 542.69 542.81 534.2Z" fill="#5C95FF"/><path d="M303.61 468.53L309.63 471.87L310.13 450.52L305.34 447.87L305.4 445.46C307.8 446.33 309.55 446.56 311.02 446.41L313.62 447.85L313.01 473.74L318.46 476.76L318.39 479.85L303.54 471.62L303.61 468.53Z" fill="#5C95FF"/><path d="M324.12 479.89L330.14 483.23L330.64 461.88L325.86 459.23L325.92 456.82C328.32 457.69 330.07 457.92 331.54 457.77L334.14 459.21L333.53 485.1L338.97 488.12L338.9 491.21L324.05 482.98L324.12 479.89Z" fill="#5C95FF"/><path d="M343.44 478.95C343.67 469.23 346.97 465.77 352.25 468.69C357.49 471.59 360.54 478.58 360.31 488.3C360.08 498.02 356.78 501.67 351.54 498.76C346.26 495.84 343.21 488.67 343.44 478.95ZM357.02 486.47C357.22 477.98 355.24 473.38 352.19 471.69C349.1 469.98 346.95 472.29 346.75 480.78C346.55 489.27 348.53 494.05 351.62 495.76C354.67 497.46 356.82 494.97 357.02 486.47Z" fill="#5C95FF"/><path d="M365.12 502.61L371.14 505.95L371.64 484.6L366.86 481.95L366.92 479.54C369.32 480.41 371.07 480.64 372.54 480.49L375.14 481.93L374.53 507.82L379.98 510.84L379.91 513.93L365.06 505.7L365.12 502.61Z" fill="#5C95FF"/><path d="M384.45 501.67C384.68 491.95 387.98 488.49 393.26 491.41C398.5 494.31 401.55 501.3 401.32 511.02C401.09 520.74 397.79 524.39 392.55 521.48C387.26 518.56 384.22 511.39 384.45 501.67ZM398.02 509.19C398.22 500.7 396.24 496.1 393.19 494.41C390.1 492.7 387.95 495.01 387.75 503.5C387.55 511.99 389.53 516.77 392.62 518.48C395.67 520.18 397.82 517.69 398.02 509.19Z" fill="#5C95FF"/><path d="M404.95 513.03C405.18 503.31 408.48 499.85 413.76 502.77C419 505.67 422.05 512.66 421.82 522.38C421.59 532.1 418.29 535.75 413.05 532.84C407.77 529.92 404.72 522.75 404.95 513.03ZM418.52 520.55C418.72 512.06 416.74 507.46 413.69 505.77C410.6 504.06 408.45 506.36 408.25 514.86C408.05 523.35 410.03 528.13 413.12 529.84C416.17 531.54 418.32 529.05 418.52 520.55Z" fill="#5C95FF"/><path d="M426.62 536.68L432.64 540.02L433.14 518.67L428.35 516.02L428.41 513.61C430.81 514.48 432.56 514.71 434.03 514.56L436.63 516L436.02 541.89L441.46 544.91L441.4 548L426.55 539.77L426.62 536.68Z" fill="#5C95FF"/><path d="M447.12 548.04L453.14 551.38L453.64 530.03L448.85 527.38L448.91 524.97C451.31 525.84 453.06 526.07 454.53 525.92L457.13 527.36L456.52 553.25L461.97 556.27L461.9 559.36L447.05 551.13L447.12 548.04Z" fill="#5C95FF"/><path d="M467.62 559.4L473.64 562.74L474.14 541.39L469.35 538.74L469.41 536.33C471.81 537.2 473.56 537.43 475.03 537.28L477.63 538.72L477.02 564.61L482.46 567.63L482.39 570.72L467.54 562.49L467.62 559.4Z" fill="#5C95FF"/><path d="M486.95 558.47C487.18 548.75 490.48 545.29 495.76 548.21C501 551.11 504.05 558.1 503.82 567.82C503.59 577.54 500.28 581.19 495.05 578.28C489.77 575.35 486.72 568.19 486.95 558.47ZM500.52 565.99C500.72 557.5 498.74 552.9 495.69 551.21C492.6 549.5 490.45 551.8 490.25 560.3C490.05 568.79 492.03 573.57 495.12 575.28C498.17 576.97 500.32 574.48 500.52 565.99Z" fill="#5C95FF"/><path d="M507.45 569.83C507.68 560.11 510.98 556.65 516.26 559.57C521.5 562.47 524.55 569.46 524.32 579.18C524.09 588.9 520.79 592.55 515.55 589.64C510.27 586.71 507.22 579.55 507.45 569.83ZM521.02 577.35C521.22 568.86 519.24 564.26 516.19 562.57C513.1 560.86 510.95 563.17 510.75 571.66C510.55 580.15 512.53 584.93 515.62 586.64C518.67 588.33 520.82 585.84 521.02 577.35Z" fill="#5C95FF"/><path d="M529.12 593.48L535.14 596.82L535.64 575.47L530.85 572.82L530.91 570.41C533.31 571.28 535.06 571.51 536.53 571.36L539.13 572.8L538.52 598.69L543.97 601.71L543.9 604.8L529.05 596.57L529.12 593.48Z" fill="#5C95FF"/><path d="M302.33 523.04L308.35 526.38L308.85 505.03L304.06 502.38L304.12 499.97C306.52 500.84 308.27 501.07 309.74 500.92L312.34 502.36L311.73 528.25L317.18 531.27L317.11 534.36L302.26 526.13L302.33 523.04Z" fill="#5C95FF"/><path d="M321.65 522.11C321.88 512.39 325.18 508.93 330.46 511.85C335.7 514.75 338.75 521.74 338.52 531.46C338.29 541.18 334.99 544.82 329.75 541.92C324.47 538.99 321.42 531.83 321.65 522.11ZM335.23 529.63C335.43 521.14 333.45 516.54 330.4 514.85C327.31 513.14 325.16 515.45 324.96 523.94C324.76 532.43 326.74 537.21 329.83 538.92C332.88 540.61 335.03 538.12 335.23 529.63Z" fill="#5C95FF"/><path d="M342.15 533.47C342.38 523.75 345.68 520.29 350.96 523.21C356.2 526.11 359.25 533.1 359.02 542.82C358.79 552.54 355.49 556.19 350.25 553.28C344.97 550.35 341.93 543.19 342.15 533.47ZM355.73 540.99C355.93 532.5 353.95 527.9 350.9 526.21C347.81 524.5 345.66 526.8 345.46 535.3C345.26 543.79 347.24 548.57 350.33 550.28C353.38 551.97 355.53 549.48 355.73 540.99Z" fill="#5C95FF"/><path d="M362.66 544.83C362.89 535.11 366.19 531.65 371.47 534.57C376.71 537.47 379.76 544.46 379.53 554.18C379.3 563.9 376 567.54 370.76 564.64C365.47 561.71 362.43 554.55 362.66 544.83ZM376.23 552.35C376.43 543.86 374.45 539.26 371.4 537.57C368.31 535.86 366.16 538.17 365.96 546.66C365.76 555.15 367.74 559.93 370.83 561.64C373.88 563.33 376.03 560.84 376.23 552.35Z" fill="#5C95FF"/><path d="M384.33 568.48L390.35 571.82L390.85 550.47L386.06 547.82L386.12 545.41C388.52 546.28 390.27 546.51 391.74 546.36L394.34 547.8L393.73 573.69L399.17 576.71L399.1 579.8L384.25 571.57L384.33 568.48Z" fill="#5C95FF"/><path d="M403.66 567.54C403.89 557.82 407.19 554.36 412.47 557.28C417.71 560.18 420.76 567.17 420.53 576.89C420.3 586.61 417 590.25 411.76 587.35C406.48 584.43 403.43 577.26 403.66 567.54ZM417.23 575.06C417.43 566.57 415.45 561.97 412.4 560.28C409.31 558.57 407.16 560.88 406.96 569.37C406.76 577.86 408.74 582.64 411.83 584.35C414.88 586.05 417.03 583.56 417.23 575.06Z" fill="#5C95FF"/><path d="M425.33 591.19L431.35 594.53L431.85 573.18L427.06 570.53L427.12 568.12C429.52 568.99 431.27 569.22 432.74 569.07L435.34 570.51L434.73 596.4L440.18 599.42L440.11 602.51L425.26 594.28L425.33 591.19Z" fill="#5C95FF"/><path d="M444.66 590.26C444.89 580.54 448.19 577.08 453.47 580C458.71 582.9 461.76 589.89 461.53 599.61C461.3 609.33 458 612.97 452.76 610.07C447.48 607.15 444.43 599.98 444.66 590.26ZM458.23 597.78C458.43 589.29 456.45 584.69 453.4 583C450.31 581.29 448.16 583.6 447.96 592.09C447.76 600.58 449.74 605.36 452.83 607.07C455.88 608.77 458.03 606.28 458.23 597.78Z" fill="#5C95FF"/><path d="M465.16 601.62C465.39 591.9 468.69 588.44 473.97 591.36C479.21 594.26 482.26 601.25 482.03 610.97C481.8 620.69 478.5 624.34 473.26 621.43C467.98 618.51 464.93 611.34 465.16 601.62ZM478.73 609.14C478.93 600.65 476.95 596.05 473.9 594.36C470.81 592.65 468.66 594.95 468.46 603.45C468.26 611.94 470.24 616.72 473.33 618.43C476.38 620.13 478.53 617.64 478.73 609.14Z" fill="#5C95FF"/><path d="M486.83 625.27L492.85 628.61L493.35 607.26L488.56 604.61L488.62 602.2C491.02 603.07 492.77 603.3 494.24 603.15L496.84 604.59L496.23 630.48L501.68 633.5L501.61 636.59L486.76 628.36L486.83 625.27Z" fill="#5C95FF"/><path d="M506.16 624.34C506.39 614.62 509.69 611.16 514.97 614.08C520.21 616.98 523.26 623.97 523.03 633.69C522.8 643.41 519.5 647.06 514.26 644.15C508.98 641.22 505.93 634.06 506.16 624.34ZM519.73 631.86C519.93 623.37 517.95 618.77 514.9 617.08C511.81 615.37 509.66 617.67 509.46 626.17C509.26 634.66 511.24 639.44 514.33 641.15C517.38 642.84 519.53 640.35 519.73 631.86Z" fill="#5C95FF"/><path d="M526.66 635.7C526.89 625.98 530.19 622.52 535.47 625.44C540.71 628.34 543.76 635.33 543.53 645.05C543.3 654.77 539.99 658.41 534.76 655.51C529.48 652.58 526.43 645.42 526.66 635.7ZM540.24 643.22C540.44 634.73 538.46 630.13 535.41 628.44C532.32 626.73 530.17 629.04 529.97 637.53C529.77 646.02 531.75 650.8 534.84 652.51C537.89 654.2 540.03 651.71 540.24 643.22Z" fill="#5C95FF"/><path d="M743.87 40.7699C749.139 40.7699 753.41 36.4987 753.41 31.2299C753.41 25.9611 749.139 21.6899 743.87 21.6899C738.601 21.6899 734.33 25.9611 734.33 31.2299C734.33 36.4987 738.601 40.7699 743.87 40.7699Z" fill="#DBEFFF"/><path opacity="0.29" d="M175.08 586.19C142.88 566.88 90.1801 566.01 57.3601 584.24C24.5401 602.47 24.0301 632.9 56.2301 652.21C88.4301 671.52 140.56 672.41 173.98 654.55C210.73 634.91 207.28 605.5 175.08 586.19Z" fill="#A8C4E5"/><path d="M160.5 579.53C129.92 561.19 79.8698 560.36 48.6998 577.67C17.5298 594.98 17.0498 623.88 47.6298 642.22C78.2098 660.56 127.71 661.4 159.46 644.44C194.36 625.8 191.08 597.87 160.5 579.53Z" fill="#E6B929"/><path d="M159.43 555.35C128.85 537.01 78.8 536.18 47.63 553.49C16.46 570.8 15.98 599.7 46.56 618.04C77.14 636.38 126.64 637.22 158.39 620.26C193.29 601.62 190.01 573.69 159.43 555.35Z" fill="#FDD76A"/><path d="M92.2898 563.65L79.5298 593.54L153.27 584.25" stroke="white" stroke-width="25.5966" stroke-miterlimit="10" stroke-linecap="round" stroke-linejoin="round"/><path d="M40.2998 787.54C49.5698 794.14 51.1798 803.11 45.5098 810.1L68.2298 810.18C72.4498 799.94 68.4498 788.33 55.8698 779.38C43.2898 770.43 25.1098 766.25 7.88982 767.25L4.56982 780.98C16.7598 778.61 31.0298 780.94 40.2998 787.54Z" fill="#D9E9FF"/><path d="M13.66 743.36L10.52 756.34C31.73 756.09 53.45 761.63 68.84 772.58C84.24 783.53 89.9 797.48 86.29 810.25L107.77 810.32C108.09 808.7 108.26 807.07 108.35 805.44C109.13 791.17 101.27 776.41 84.42 764.42C65.64 751.04 39.58 743.88 13.66 743.36Z" fill="#D9E9FF"/><path d="M0.00997636 800.11C0.0199764 800.3 0.0299764 800.5 0.0599764 800.69C0.109976 801.01 0.199976 801.33 0.309976 801.66C0.399976 801.95 0.519976 802.24 0.649976 802.52C0.769976 802.79 0.899976 803.05 1.06998 803.31C1.28998 803.67 1.55998 804.01 1.84998 804.36C2.01998 804.56 2.15998 804.76 2.33998 804.95C2.85998 805.49 3.43998 806.01 4.13998 806.5C4.82998 806.99 5.58998 807.42 6.37998 807.82C6.65998 807.96 6.95998 808.08 7.25998 808.21C7.77998 808.44 8.29998 808.65 8.83998 808.84C9.23998 808.98 9.64998 809.1 10.06 809.21C10.5 809.33 10.95 809.45 11.4 809.55C11.91 809.66 12.41 809.77 12.93 809.85C13.24 809.9 13.55 809.93 13.86 809.97C17.05 810.36 20.32 810.16 23.28 809.36C23.84 809.21 24.38 809.04 24.91 808.85C25.62 808.6 26.3 808.33 26.94 808C27.76 807.57 28.49 807.09 29.13 806.58C33.56 803.01 33.27 797.74 28.01 794C22.75 790.26 14.28 789.29 7.81998 791.42C6.89998 791.72 6.01998 792.09 5.18998 792.52C4.54998 792.86 3.99998 793.23 3.49998 793.62C3.09998 793.91 2.74998 794.22 2.41998 794.53C1.72998 795.18 1.23998 795.88 0.839976 796.61C0.239976 797.72 -0.0700236 798.9 0.00997636 800.11Z" fill="#D9E9FF"/><path d="M362.86 435.67V320.57C362.86 287.58 385.5 272.86 414.24 288.7C443.8 304.99 468.05 346.36 468.05 380.11V496.4C468.05 498.28 469.38 500.56 471.01 501.5C472.64 502.44 473.97 501.69 473.97 499.81V384.83C473.97 345.77 446.11 298.2 412.12 280.78C381.4 265.03 356.94 280.22 356.94 315.96V432.25C356.94 434.13 358.27 436.41 359.9 437.35C361.53 438.3 362.86 437.55 362.86 435.67Z" fill="white"/><path d="M471.01 503.03C468.65 501.67 466.72 498.35 466.72 495.64V379.35C466.72 363.41 461.23 345.31 451.27 328.38C441.31 311.46 428.18 297.91 414.27 290.25C386.65 275.02 364.19 288.97 364.19 321.34V436.44C364.19 439.15 362.27 440.25 359.9 438.88C357.54 437.52 355.61 434.2 355.61 431.49V315.2C355.61 278.8 380.4 263 412.04 279.22C428.49 287.64 444.16 303.27 456.15 323.2C468.32 343.42 475.29 366.16 475.29 385.6V500.59C475.3 503.3 473.37 504.4 471.01 503.03ZM415.47 287.88C429.63 296.05 442.96 309.98 453.13 327.27C463.61 345.08 469.38 364.12 469.38 380.88V497.17C469.38 498.2 470.11 499.46 471.01 499.98C471.91 500.5 472.64 500.08 472.64 499.05V384.07C472.64 365.46 465.97 343.7 454.33 324.36C442.88 305.33 427.91 290.4 412.19 282.35C381.95 266.85 358.26 281.95 358.26 316.73V433.02C358.26 434.05 358.99 435.31 359.89 435.83C360.79 436.35 361.52 435.93 361.52 434.9V319.8C361.52 285.79 385.15 271.15 414.2 287.16C414.63 287.4 415.05 287.63 415.47 287.88Z" fill="white"/><path d="M485.93 385.97C485.97 385.99 486.01 386.02 486.06 386.04C488.38 387.36 490.26 386.28 490.26 383.62V382.04C490.26 348.19 473.39 308.85 448.94 280.32C446.47 277.44 443.45 277.23 442.84 279.99C442.83 280.03 442.82 280.08 442.81 280.12C442.39 282.03 443.27 284.76 444.98 286.76C466.68 312.06 481.68 347.07 481.68 377.11V378.67C481.68 381.35 483.59 384.63 485.93 385.97Z" fill="white"/><path d="M482.37 398.98L481.73 455.38C481.7 457.88 483.47 460.97 485.67 462.23L486.31 462.6C488.49 463.86 490.25 462.85 490.25 460.35V403.57C490.25 401.07 488.49 398.03 486.31 396.77C484.16 395.54 482.4 396.52 482.37 398.98Z" fill="white"/><path d="M434.31 270.48C434.89 268.16 433.47 264.63 431.14 262.7C426.42 258.79 421.55 255.3 416.56 252.33C396.42 240.38 377.36 238.14 362.97 246.11C360.97 247.21 358.21 249.47 356.23 251.19C354.85 252.38 355.17 255.46 356.93 258.03C358.53 260.35 360.78 261.46 362.18 260.61C364.26 259.34 367.2 257.57 369.08 256.54C381.88 249.51 398.78 251.52 416.68 262.25C420.98 264.82 425.17 267.83 429.24 271.2C431.49 273.06 433.73 272.81 434.29 270.57L434.31 270.48Z" fill="white"/><path d="M415.75 536.63L415.15 536.28C413.02 535.05 411.29 531.73 411.29 528.9V373.15C411.29 370.32 413.03 369 415.15 370.23L415.75 370.58C417.88 371.81 419.61 375.13 419.61 377.96V533.72C419.62 536.54 417.88 537.86 415.75 536.63Z" fill="white"/><path d="M393.74 518.48L393.14 518.14C391.03 516.92 389.31 513.63 389.31 510.83V445.76C389.31 442.95 391.03 441.65 393.14 442.87L393.74 443.21C395.85 444.43 397.57 447.72 397.57 450.52V515.59C397.56 518.39 395.84 519.69 393.74 518.48Z" fill="white"/><path d="M437.77 538.64L437.17 538.3C435.06 537.08 433.34 533.79 433.34 530.99V490.26C433.34 487.45 435.06 486.15 437.17 487.37L437.77 487.71C439.88 488.93 441.6 492.22 441.6 495.02V535.75C441.59 538.56 439.87 539.86 437.77 538.64Z" fill="white"/><path d="M454.47 538.12L453.66 537.65C451.51 536.41 449.74 533.04 449.74 530.17V489.68C449.74 486.81 451.5 485.48 453.66 486.72L454.47 487.19C456.62 488.43 458.39 491.8 458.39 494.67V535.16C458.39 538.03 456.62 539.36 454.47 538.12Z" fill="white"/><path d="M377.24 494.96L376.43 494.49C374.28 493.25 372.51 489.88 372.51 487.01V446.52C372.51 443.65 374.27 442.32 376.43 443.56L377.24 444.03C379.39 445.27 381.16 448.64 381.16 451.51V492C381.16 494.87 379.4 496.2 377.24 494.96Z" fill="white"/><path d="M360.33 465.95L359.52 465.48C357.37 464.24 355.6 460.87 355.6 458V417.51C355.6 414.64 357.36 413.31 359.52 414.55L360.33 415.02C362.48 416.26 364.25 419.63 364.25 422.5V462.99C364.25 465.86 362.49 467.2 360.33 465.95Z" fill="white"/><path d="M471.2 525.56L470.39 525.09C468.24 523.85 466.47 520.48 466.47 517.61V477.12C466.47 474.25 468.23 472.92 470.39 474.16L471.2 474.63C473.35 475.87 475.12 479.24 475.12 482.11V522.6C475.11 525.47 473.35 526.8 471.2 525.56Z" fill="white"/><path d="M353.18 265.77L353.08 265.63C350.87 262.51 347.77 261.75 346.69 264C342.74 272.26 340.66 282.5 340.66 294.31V339.47C340.66 342.19 342.58 345.5 344.95 346.87C347.32 348.24 349.24 347.14 349.24 344.43V299.27C349.24 288.79 351.09 279.72 354.59 272.41C355.36 270.78 354.77 268.03 353.18 265.77Z" fill="white"/><path d="M340.65 359.93V417.79C340.65 420.17 342.05 423.16 344.08 424.79C346.82 426.98 349.22 425.97 349.22 422.94V364.89C349.22 362.17 347.3 358.86 344.93 357.5C342.57 356.12 340.65 357.21 340.65 359.93Z" fill="white"/><path d="M437.47 468.48C439.75 469.8 441.6 468.74 441.6 466.13V387.58C441.6 370.31 430.3 349.24 416.42 340.62C409.52 336.31 402.94 335.47 397.85 338.15C392.42 341.01 389.31 347.73 389.31 356.6V407.18C389.31 409.74 390.98 413.01 393.21 414.43C395.59 415.95 397.56 414.91 397.56 412.21V362.1C397.56 350.22 405.2 344.53 414.6 349.42C419.32 351.88 423.86 356.46 427.38 362.34C431.17 368.67 433.35 375.85 433.35 382.03V461.38C433.34 463.98 435.19 467.17 437.47 468.48Z" fill="white"/><path d="M376.99 346.09C374.66 344.74 372.77 345.82 372.77 348.5V429.72C372.77 432.43 374.66 435.73 376.99 437.07C379.32 438.41 381.21 437.3 381.21 434.59V353.37C381.21 350.69 379.32 347.43 376.99 346.09Z" fill="white"/><path d="M444.19 341.86C435.62 327.68 424.51 316.65 412.91 310.79C396.33 302.42 382.4 306.67 376.22 320.08C375.02 322.69 377.1 327.54 380.22 329.35C381.96 330.36 383.52 330.05 384.21 328.61C389.47 317.56 401.11 314.19 414.6 321.53C423.81 326.52 432.54 335.51 439.22 346.82C446.15 358.54 449.96 371.15 449.96 382.34V485.97C449.96 488.68 451.85 491.98 454.18 493.32C456.51 494.66 458.4 493.55 458.4 490.84V388.28C458.39 373.7 453.21 356.78 444.19 341.86Z" fill="white"/><path d="M699.77 693.86L690.75 698.55L688.14 693.49L690.16 682.88L699.77 693.86Z" fill="#2C4482"/><path d="M537.89 492.67L546.06 488.34L558.26 496.11L546.61 501.94L537.89 492.67Z" fill="#2C4482"/><path d="M550.53 488.8L695.15 572.3C699.07 574.56 702.27 580.69 702.27 585.91V688.09C702.27 693.31 699.06 695.74 695.15 693.48L550.53 609.98C546.61 607.72 543.41 601.59 543.41 596.37V494.19C543.41 488.96 546.61 486.54 550.53 488.8Z" fill="#3B2AD1"/><path d="M541.48 614.69L686.1 698.19C690.02 700.45 693.22 698.03 693.22 692.8V590.62C693.22 585.4 690.01 579.27 686.1 577.01L541.48 493.51C537.56 491.25 534.36 493.67 534.36 498.9V601.08C534.35 606.3 537.56 612.43 541.48 614.69Z" fill="#4A39E3"/><path d="M655.37 642.63L676.77 654.99C678.64 656.07 680.18 654.91 680.18 652.41C680.18 649.91 678.65 646.98 676.77 645.9L655.37 633.54C653.5 632.46 651.96 633.62 651.96 636.12C651.96 638.62 653.49 641.54 655.37 642.63Z" fill="#ADD0FF"/><path d="M619.18 621.73L640.58 634.09C642.45 635.17 643.99 634.01 643.99 631.51C643.99 629.01 642.46 626.08 640.58 625L619.18 612.64C617.31 611.56 615.77 612.72 615.77 615.22C615.78 617.72 617.31 620.65 619.18 621.73Z" fill="#ADD0FF"/><path d="M583 600.84L604.4 613.2C606.27 614.28 607.81 613.12 607.81 610.62C607.81 608.12 606.28 605.19 604.4 604.11L583 591.76C581.13 590.68 579.59 591.84 579.59 594.34C579.59 596.83 581.12 599.76 583 600.84Z" fill="#ADD0FF"/><path d="M574.76 611.86L600.45 626.69C601.69 627.41 602.7 626.64 602.7 624.99C602.7 623.34 601.69 621.4 600.45 620.69L574.76 605.86C573.52 605.14 572.51 605.91 572.51 607.56C572.51 609.21 573.52 611.14 574.76 611.86Z" fill="#ADD0FF"/><path d="M652.78 580.97L677.38 595.17C678.92 596.06 680.18 595.11 680.18 593.05C680.18 591 678.92 588.59 677.38 587.7L652.78 573.5C651.24 572.61 649.98 573.56 649.98 575.62C649.98 577.67 651.24 580.08 652.78 580.97Z" fill="#ADD0FF"/><path d="M547.93 560.42L569.08 572.63C571.57 574.07 573.6 572.53 573.6 569.21V564.51C573.6 561.19 571.56 557.3 569.08 555.87L547.93 543.66C545.44 542.22 543.41 543.76 543.41 547.08V551.78C543.41 555.09 545.44 558.98 547.93 560.42Z" fill="#EBD265"/><path d="M613.49 644.01L677.92 681.21C679.16 681.93 680.17 681.16 680.17 679.51C680.17 677.86 679.16 675.92 677.92 675.21L613.49 638.01C612.25 637.29 611.24 638.06 611.24 639.71C611.24 641.36 612.26 643.3 613.49 644.01Z" fill="#ADD0FF"/><path d="M546.81 579.95L568.21 592.31C570.08 593.39 571.62 592.23 571.62 589.73C571.62 587.23 570.09 584.3 568.21 583.22L546.81 570.86C544.94 569.78 543.4 570.94 543.4 573.44C543.41 575.94 544.94 578.87 546.81 579.95Z" fill="#ADD0FF"/><path d="M543.41 515.66C543.41 522.18 548.01 530.12 553.69 533.4C559.37 536.68 563.97 534.05 563.97 527.54C563.97 521.02 559.37 513.08 553.69 509.8C548.01 506.51 543.41 509.14 543.41 515.66Z" fill="#ADD0FF"/><path d="M516.75 570.65V620.92L484.39 602.23" stroke="white" stroke-width="8" stroke-miterlimit="10" stroke-linecap="round" stroke-linejoin="round"/><path d="M482.85 253.73L516.75 273.31V316.82" stroke="white" stroke-width="8" stroke-miterlimit="10" stroke-linecap="round" stroke-linejoin="round"/><path d="M322.48 198.76V161.14L349.1 176.51" stroke="white" stroke-width="8" stroke-miterlimit="10" stroke-linecap="round" stroke-linejoin="round"/><path d="M280.97 85.4501C280.97 85.4501 239.56 95.2701 216.4 42.0701C201.28 61.0801 178.9 46.6101 164.83 33.8301L151.74 20.1201C143.39 23.4201 138.55 25.4701 130.63 31.2301L136.13 40.1801L137.77 42.6701C117.66 100.04 171.31 193.73 181.08 208.25C192.29 224.9 210.9 251.01 210.9 251.01C210.9 251.01 238.77 248.39 250.07 243.13C261.37 237.86 320.35 185.36 280.97 85.4501Z" fill="#A6B6E0"/><path d="M259.86 96.56C259.86 96.56 218.45 106.38 195.29 53.18C171.76 82.78 130.62 31.23 130.62 31.23C79.8299 81.95 148.75 202.71 159.96 219.36C167.63 230.76 178.78 246.6 185.05 255.45C187.99 259.61 192.48 261.87 196.71 261.34C205.72 260.21 221.22 257.84 228.96 254.24C240.26 248.96 309.96 198.28 259.86 96.56Z" fill="#D9E9FF"/><path d="M243.42 109.84C243.42 109.84 210.58 117.63 192.21 75.4403C173.55 98.9103 140.92 58.0303 140.92 58.0303C100.64 98.2603 155.3 194.03 164.19 207.23C168.98 214.35 175.59 224.41 180.65 232.16C185.25 239.19 192.83 242.75 199.57 241.03C206.26 239.32 214.28 237.04 218.91 234.89C227.88 230.71 283.16 190.52 243.42 109.84Z" fill="#3B2AD1"/><path d="M243.42 109.84C243.42 109.84 210.59 117.62 192.22 75.46L193.39 241.2C195.46 241.58 197.55 241.55 199.57 241.04C206.26 239.33 214.28 237.05 218.91 234.9C227.88 230.71 283.16 190.52 243.42 109.84Z" fill="#4A39E3"/><path d="M202.847 162.821C208.802 158.811 207.999 147.197 201.053 136.88C194.106 126.563 183.647 121.45 177.692 125.46C171.736 129.47 172.539 141.084 179.486 151.401C186.432 161.718 196.891 166.831 202.847 162.821Z" fill="#221878"/><path d="M187.97 133.09L189.16 133.52C193.53 135.12 197.1 142.68 197.09 150.33L197.05 174.04C197.04 181.68 193.45 186.63 189.07 185.03L187.88 184.6C183.51 183 179.94 175.44 179.95 167.79L179.99 144.08C180 136.43 183.59 131.49 187.97 133.09Z" fill="#221878"/><path d="M189.35 166.83L189.38 151.16C185.58 145.78 183.13 139.43 183.1 133.84C183.08 129.66 184.41 126.59 186.66 124.83C179.2 122.34 173.65 126.28 173.7 134.79C173.73 140.38 176.19 146.73 179.98 152.11L179.95 167.78C179.94 175.42 183.51 182.99 187.88 184.59L189.07 185.02C191.49 185.9 193.67 184.78 195.13 182.31C191.8 179.44 189.34 173.17 189.35 166.83Z" fill="#7A6BFF"/><path d="M262.21 397.56C262.38 384.8 256.47 373.44 246.7 367.74L95.38 279.53C87.09 274.7 80.18 280.97 80.01 293.47L78.5 405.49C78.34 417.32 83.82 427.86 92.88 433.14L231.87 514.16C244.56 521.56 260.69 510.09 260.92 493.52L262.21 397.56Z" fill="#D9E9FF"/><path d="M205.75 330.82L151.2 299.48C149.61 298.57 145.83 295.94 144.42 296.6L143.37 297.36L129.38 306.38L140.39 321.28L140.66 335.92C140.83 345.29 147.06 356.46 154.51 360.74L180.64 375.75L193.13 394.75L207.5 386.31C207.74 386.15 207.97 385.96 208.19 385.77L208.24 385.73C210.23 383.92 211.41 380.75 211.33 376.52L210.66 339.62C210.59 336.29 208.39 332.33 205.75 330.82Z" fill="#A8C4E5"/><path d="M184.86 393.98L142.04 371.15C134.73 367.25 128.6 356.39 128.43 347.02L127.76 310.11C127.7 306.79 129.77 305.21 132.36 306.59L192.36 338.59C194.95 339.97 197.12 343.82 197.18 347.13L197.85 384.04C198.01 393.4 192.17 397.88 184.86 393.98Z" fill="white"/><path d="M136.74 358.31C135.42 358.34 134.32 357.31 134.29 356.03L133.62 319.12C133.6 317.84 134.66 316.76 135.98 316.73C137.3 316.7 138.4 317.73 138.43 319.01L139.1 355.92C139.12 357.21 138.06 358.28 136.74 358.31Z" fill="white"/><path d="M193.73 330.57C190.83 332.22 185.77 332.21 182.43 330.55C179.09 328.89 178.74 326.2 181.64 324.55C184.54 322.9 189.6 322.91 192.94 324.57C196.28 326.24 196.63 328.92 193.73 330.57Z" fill="#4A39E3"/><path d="M193.49 328.62C190.59 330.27 185.53 330.26 182.19 328.6C178.85 326.94 178.5 324.25 181.4 322.6C184.3 320.95 189.36 320.96 192.7 322.62C196.04 324.28 196.39 326.97 193.49 328.62Z" fill="#6C5DFA"/><path d="M159.31 313.13C156.41 314.78 151.35 314.77 148.01 313.11C144.67 311.45 144.32 308.76 147.22 307.11C150.12 305.46 155.18 305.47 158.52 307.13C161.85 308.8 162.21 311.48 159.31 313.13Z" fill="#4A39E3"/><path d="M159.06 311.18C156.16 312.83 151.1 312.82 147.76 311.16C144.42 309.5 144.07 306.81 146.97 305.16C149.87 303.51 154.93 303.52 158.27 305.18C161.61 306.84 161.96 309.53 159.06 311.18Z" fill="#6C5DFA"/><path d="M191.92 326.52C189.98 327.63 186.59 327.62 184.35 326.51C182.11 325.4 181.88 323.6 183.82 322.49C185.76 321.38 189.15 321.39 191.39 322.5C193.63 323.61 193.87 325.41 191.92 326.52Z" fill="#4A39E3"/><path d="M158.246 307.311C158.33 305.751 155.996 304.357 153.035 304.199C150.073 304.041 147.605 305.178 147.521 306.739C147.438 308.3 149.771 309.693 152.733 309.851C155.695 310.009 158.163 308.872 158.246 307.311Z" fill="#4A39E3"/><path d="M182.59 324.11L182.29 307.24C182.63 301.27 178.94 292.66 173.03 289.63L166.92 286.5C164.79 285.41 162.78 285.17 161.25 285.83C160.07 286.34 159.12 287.4 158.52 288.84C158.09 289.88 157.92 291.03 157.95 292.19L158.28 306.59C157.89 309.1 147.2 309.1 147.58 306.59L147.79 289.57C148.65 283.97 151.88 279.58 156.64 277.52C161.19 275.56 166.72 275.92 171.81 278.53L177.92 281.66C187.62 286.63 192.68 295.47 193.23 308.75L193.22 324.91C192.88 327.17 182.2 326.62 182.59 324.11Z" fill="#4A39E3"/><path d="M154.17 342.18C154.14 337.9 157.62 336.17 161.93 338.32C166.24 340.47 169.76 345.69 169.79 349.97C169.82 354.25 166.34 355.98 162.03 353.83C157.72 351.68 154.2 346.46 154.17 342.18Z" fill="#3629A6"/><path d="M160.9 341.27L161.46 341.45C163.52 342.1 165.2 345.37 165.2 348.71L165.18 359.08C165.17 362.42 163.48 364.63 161.42 363.98L160.86 363.8C158.8 363.15 157.12 359.88 157.12 356.54L157.14 346.17C157.15 342.82 158.84 340.62 160.9 341.27Z" fill="#3629A6"/><path d="M161.55 356.01L161.56 349.16C159.77 346.85 158.62 344.11 158.6 341.66C158.59 339.83 159.22 338.47 160.28 337.68C156.77 336.68 154.15 338.47 154.17 342.18C154.19 344.62 155.34 347.37 157.13 349.68L157.12 356.53C157.11 359.87 158.8 363.14 160.86 363.79L161.42 363.97C162.56 364.33 163.59 363.81 164.28 362.72C162.7 361.49 161.54 358.78 161.55 356.01Z" fill="#4A39E3"/><path d="M218.59 481.85L111.79 420.19C106.49 417.13 102.15 408.84 102.15 401.77V387.84C102.15 380.77 106.49 377.49 111.79 380.55L218.59 442.21C223.89 445.27 228.23 453.56 228.23 460.63V474.56C228.24 481.63 223.9 484.91 218.59 481.85Z" fill="#ADD0FF"/><path d="M132.08 413.89L129.07 412.22L131.22 411.06L129.12 407.57L126.98 408.73L127 405.43L124.02 403.78L123.99 407.08L121.88 403.57L119.76 404.72L121.86 408.23L118.86 406.57L118.83 409.86L121.84 411.52L119.7 412.68L121.79 416.17L123.93 415.01L123.91 418.31L126.9 419.96L126.92 416.66L129.03 420.17L131.16 419.02L129.05 415.51L132.06 417.17L132.08 413.89Z" fill="white"/><path d="M151.77 424.78L148.77 423.11L150.91 421.95L148.81 418.46L146.67 419.62L146.7 416.32L143.71 414.67L143.68 417.97L141.58 414.46L139.45 415.61L141.55 419.12L138.55 417.46L138.52 420.75L141.53 422.41L139.39 423.57L141.48 427.06L143.63 425.9L143.6 429.2L146.59 430.85L146.61 427.55L148.72 431.06L150.85 429.91L148.74 426.4L151.75 428.06L151.77 424.78Z" fill="white"/><path d="M171.46 435.67L168.46 434L170.6 432.84L168.51 429.35L166.36 430.51L166.39 427.21L163.4 425.56L163.38 428.86L161.27 425.35L159.14 426.5L161.25 430.01L158.24 428.35L158.22 431.64L161.22 433.3L159.08 434.46L161.17 437.95L163.32 436.79L163.29 440.09L166.28 441.74L166.3 438.44L168.41 441.95L170.54 440.8L168.43 437.29L171.44 438.95L171.46 435.67Z" fill="white"/><path d="M191.16 446.55L188.15 444.89L190.29 443.73L188.2 440.24L186.05 441.4L186.08 438.1L183.09 436.45L183.07 439.75L180.96 436.24L178.83 437.39L180.94 440.9L177.93 439.24L177.91 442.53L180.91 444.19L178.77 445.35L180.87 448.84L183.01 447.68L182.98 450.98L185.97 452.63L186 449.33L188.1 452.84L190.23 451.69L188.12 448.18L191.13 449.84L191.16 446.55Z" fill="white"/><path d="M210.85 457.44L207.84 455.78L209.98 454.62L207.89 451.13L205.75 452.29L205.77 448.99L202.78 447.34L202.76 450.64L200.65 447.13L198.52 448.28L200.63 451.79L197.62 450.13L197.6 453.42L200.61 455.08L198.46 456.24L200.56 459.73L202.7 458.57L202.68 461.87L205.66 463.52L205.69 460.22L207.8 463.73L209.93 462.58L207.82 459.07L210.82 460.73L210.85 457.44Z" fill="white"/><path d="M231.64 547.14C238.13 560.45 248.62 586.91 262.69 592.08C282.16 599.24 302.83 575.97 318.62 564.34C325.69 559.13 318.95 547.05 311.78 552.33C299 561.74 282.86 569.95 266.87 563.77C256.18 559.64 248.54 550.34 243.64 540.29C239.75 532.31 227.75 539.16 231.64 547.14Z" fill="#E655BE"/><path d="M346.07 628.36L325.59 497.49L303.79 515.3L318.86 607.81L330.83 621.78L346.07 628.36Z" fill="#ADD0FF"/><path d="M320.76 543.65C336.9 530.46 347.27 503.1 343.92 482.53C340.57 461.96 324.77 455.97 308.63 469.16C292.49 482.35 282.12 509.71 285.47 530.28C288.82 550.85 304.62 556.83 320.76 543.65Z" fill="#ADD0FF"/><path d="M357.73 624.13L337.55 500.25L315.75 518.06L330.82 610.57L346.07 628.36L357.73 624.13Z" fill="#D9E9FF"/><path d="M332.72 546.4C348.86 533.21 359.23 505.85 355.88 485.28C352.53 464.71 336.73 458.72 320.59 471.91C304.45 485.1 294.08 512.46 297.43 533.03C300.78 553.61 316.58 559.59 332.72 546.4Z" fill="#D9E9FF"/><path d="M333.02 534.81C344.49 525.44 351.85 506 349.47 491.38C347.09 476.76 335.86 472.51 324.4 481.88C312.93 491.25 305.57 510.69 307.95 525.31C310.32 539.93 321.55 544.18 333.02 534.81Z" fill="#ADD0FF"/><path d="M332.479 488.785C335.056 481.984 333.967 475.266 330.047 473.781C326.128 472.296 320.861 476.605 318.284 483.407C315.707 490.208 316.795 496.926 320.715 498.411C324.635 499.896 329.902 495.587 332.479 488.785Z" fill="#4432DB"/><path d="M317.91 495.61C316.49 492.69 316.53 488.05 318.3 483.37C320.12 478.57 323.28 475 326.36 473.85C329.25 480.29 322.66 494.25 317.91 495.61Z" fill="#699EFF"/><path d="M338.681 529.2L336.503 529.576L353.075 625.642L355.253 625.267L338.681 529.2Z" fill="#ADD0FF"/><path d="M331.148 514.349L328.975 514.752L349.75 626.868L351.923 626.465L331.148 514.349Z" fill="#ADD0FF"/><path d="M325.99 527.948L323.816 528.347L341.453 624.455L343.627 624.056L325.99 527.948Z" fill="#ADD0FF"/><path d="M321.29 480.75C321.29 480.75 323.11 474.49 315.13 464.85C304.72 452.29 292.26 459.63 300.39 474.42" stroke="#3B2AD1" stroke-width="2.9547" stroke-miterlimit="10" stroke-linecap="round" stroke-linejoin="round"/><path d="M335.31 561.81C332 560.9 330.04 557.45 330.95 554.14L334.86 539.93C335.77 536.62 339.22 534.66 342.53 535.57C345.84 536.48 347.8 539.93 346.89 543.24L342.98 557.45C342.08 560.76 338.62 562.73 335.31 561.81Z" fill="#FFC2B0"/><path d="M266.37 577.82C266.37 577.82 280.14 640.47 317.12 614.83C339.49 599.32 343.14 556.9 343.14 556.9L335.43 554.58C335.43 554.58 322.37 596.23 308.94 592.67C295.51 589.1 285.77 564.57 278.99 559.23C273.89 555.2 266.37 577.82 266.37 577.82Z" fill="#FF80DB"/><path opacity="0.4" d="M248.767 842.887C273.797 842.444 293.909 832.004 293.689 819.569C293.469 807.134 272.999 797.413 247.969 797.856C222.939 798.299 202.827 808.739 203.047 821.174C203.267 833.609 223.737 843.33 248.767 842.887Z" fill="#A8C4E5"/><path d="M223.22 801.77L233.84 800.44C240.95 797.22 244.27 794.8 247.43 796.63L248.33 797.15C251.49 798.98 251.09 802.2 247.44 804.31L231.83 816.71C228.18 818.82 223.25 818.15 220.34 815.59C220.34 815.59 218.59 814.01 219.84 807.38C220.55 803.6 220.3 803.46 223.22 801.77Z" fill="#2C1F9C"/><path d="M271.71 819.81L282.23 821.79C289.98 820.9 293.88 819.61 296.33 822.32L297.03 823.09C299.48 825.8 298.12 828.74 293.99 829.63L275.33 836.66C271.21 837.55 266.72 835.41 264.73 832.08C264.73 832.08 263.55 830.05 266.77 824.11C268.61 820.73 268.41 820.53 271.71 819.81Z" fill="#2C1F9C"/><path d="M279.04 822.41C279.04 827.72 266.11 827.72 266.11 822.41V805.14H279.04V822.41Z" fill="#C6D2F2"/><path d="M280.34 811.6C279.14 818.2 265.67 817.72 262.77 813.45C259.94 756.51 249.04 697.38 230.5 637.16H277.15C281.16 695.55 282.65 753.74 280.34 811.6Z" fill="#3B2AD1"/><path d="M233.21 803.88C232.92 808.69 219.99 808.69 220.28 803.88L221.24 788.24H234.17L233.21 803.88Z" fill="#C6D2F2"/><path d="M235.6 796.93C230.68 802.25 220.42 799.98 218.29 796.14L217.97 640.18L250.68 645L235.6 796.93Z" fill="#3B2AD1"/><path d="M251.479 535.538C259.015 534.564 263.731 522.994 262.012 509.695C260.293 496.397 252.79 486.407 245.253 487.381C237.717 488.355 233.001 499.925 234.72 513.223C236.439 526.522 243.942 536.512 251.479 535.538Z" fill="#FFC2B0"/><path d="M272.9 521.12C269.7 532.28 257.73 536.32 250.69 529.04C243.65 521.75 240.55 506.79 243.75 495.63C246.95 484.47 255.25 481.32 262.29 488.61C269.33 495.9 276.11 509.96 272.9 521.12Z" fill="#FFC2B0"/><path d="M245.83 553.34L244.63 553.07C240.59 552.17 238.02 548.12 238.92 544.08L244 521.29C244.9 517.25 248.95 514.68 252.99 515.58L254.19 515.85C258.23 516.75 260.8 520.8 259.9 524.84L258.23 547.46C257.33 551.5 249.87 554.24 245.83 553.34Z" fill="#FFC2B0"/><path d="M232.25 522.8C232.25 522.8 233.46 533.32 248.4 531.21C259.12 529.7 256 512.26 266.71 510.51C278.5 508.59 280.64 494.02 275.99 488.43C271.34 482.84 258.36 479.92 248.96 484.07C239.56 488.22 225.06 487.98 232.25 522.8Z" fill="#4432DB"/><path d="M266.76 516.57C265.98 519.28 263.15 520.85 260.43 520.07C257.71 519.29 256.15 516.46 256.93 513.74C257.71 511.03 260.54 509.46 263.26 510.24C265.97 511.02 267.54 513.86 266.76 516.57Z" fill="#FFC2B0"/><path d="M215.2 638.33C219.02 617.41 214.91 600.88 215.25 578.64C215.25 538.66 213.33 528.9 234.47 534.98L240.43 536.56C243.29 537.32 246.07 538.4 248.7 539.75C276.57 554.11 284 558.54 282.78 575.19C282.91 602.62 278.86 633.39 278.29 646.88C272.53 665.86 221.57 651.9 215.2 638.33Z" fill="#FF80DB"/><path d="M259.32 532.71L258.11 529.91C258.11 529.91 260.27 532.07 264.38 531.54C264.38 531.54 261.95 532.93 259.32 532.71Z" fill="#F09A82"/><path d="M688.43 437.41C688.58 426.62 683.5 416.9 675.1 411.9L544.88 334.49C537.75 330.25 531.79 335.43 531.64 346L530.28 440.73C530.14 450.73 534.85 459.75 542.64 464.39L662.25 535.49C673.17 541.98 687.06 532.58 687.27 518.56L688.43 437.41Z" fill="#D9E9FF"/><path d="M591.111 456.283C603.392 450.75 605.342 428.496 595.466 406.578C585.59 384.66 567.628 371.377 555.347 376.911C543.066 382.444 541.117 404.698 550.993 426.616C560.869 448.535 578.831 461.817 591.111 456.283Z" fill="white"/><path d="M582.96 442.38C585.45 443.96 588.56 441.35 587.9 438.22C587.26 435.18 586.41 432.32 585.66 431.07C584.99 429.95 584.16 429.08 583.43 428.32C582.68 427.53 581.7 426.41 580.75 425.32C580.43 424.96 580.11 424.59 579.8 424.23L577.88 421.94C577.59 421.53 577.31 421.12 577.02 420.71C576.97 420.64 576.87 420.51 576.82 420.42C576.8 420.26 576.82 420.09 576.82 419.95C576.8 418.95 576.77 417.95 576.75 416.96C577.55 416.47 578.04 415.4 578.22 413.98C579.52 414.84 579.83 412.93 579.97 411.58C580.07 410.62 580.21 408.2 579.2 407.31C579.22 407.16 579.25 407.01 579.28 406.89C579.44 406.1 579.58 405.27 579.59 404.35C579.6 403.43 579.47 402.4 579.13 401.38C579.05 401.14 578.94 400.89 578.81 400.7C578.83 400.39 578.75 399.98 578.66 399.61C577.93 396.76 576.42 394.22 574.83 392.67C573.24 391.12 571.58 390.46 570.03 390.25C568.89 390.1 567.38 390.3 567.32 392.57C567.31 392.86 567.36 393.15 567.45 393.42C567.24 393.31 567.07 393.47 566.95 393.66C566.61 394.24 566.49 395.11 566.5 396.05C566.51 396.99 566.66 398 566.83 399C566.86 399.16 566.88 399.33 566.91 399.5C565.67 398.69 565.89 401.59 566.02 402.77C566.18 404.25 566.52 406.47 567.7 407.29C567.78 407.95 567.89 408.61 568.06 409.28C568.32 410.26 568.68 411.12 569.1 411.91C569.1 411.92 569.09 411.93 569.09 411.95C569.11 412.97 569.14 414 569.16 415.02C569.16 415.11 569.18 415.27 569.18 415.38C569.16 415.31 568.97 415.48 568.92 415.51C568.74 415.61 568.56 415.72 568.38 415.82V415.81L567.87 415.73V415.71L567.75 415.68C567.42 415.61 567.07 415.57 566.73 415.55L566.69 415.54C566.25 415.51 565.81 415.51 565.38 415.51C564.6 415.51 563.8 415.31 563.04 415.34C561.13 415.42 558.52 417.41 558.1 422.4C557.9 424.74 558.89 426.96 560.66 428.13L582.96 442.38ZM579.7 411.52C579.69 411.65 579.67 411.77 579.66 411.86C579.67 411.76 579.68 411.64 579.7 411.52Z" fill="#E655BE"/><path d="M659 453.88L618.97 428.87L618.73 444.06L658.76 469.06L659 453.88Z" fill="white"/><path d="M618.55 455.35L618.31 470.54L679.05 508.47L679.29 493.29L618.55 455.35Z" fill="white"/><path d="M596.296 468.134C612.22 461.047 615.157 432.895 602.856 405.254C590.555 377.614 567.673 360.953 551.749 368.04C535.825 375.127 532.888 403.279 545.19 430.919C557.491 458.559 580.372 475.221 596.296 468.134Z" stroke="white" stroke-width="1.505" stroke-miterlimit="10" stroke-linecap="round" stroke-linejoin="round"/></g><defs><clipPath><rect width="800.08" height="842.93" fill="white"/></clipPath></defs></svg>