<svg width="39" height="33" viewBox="0 0 39 33" fill="none" xmlns="http://www.w3.org/2000/svg">
<path d="M0.491333 28.5075C4.60905 28.8052 8.33796 27.8245 11.8018 25.2499C8.21425 24.8296 5.77544 23.0782 4.43232 19.663C5.59871 19.663 6.6414 19.663 7.66641 19.663C7.68408 19.6104 7.70176 19.5404 7.70176 19.4878C5.422 18.8223 3.6724 17.5088 2.55903 15.4246C1.95816 14.3037 1.65773 13.0953 1.65773 11.8168C2.75343 12.1145 3.81378 12.3947 4.87413 12.6925C4.90948 12.6224 4.94485 12.5524 4.98019 12.4823C3.07155 10.9586 1.90515 9.04957 1.7461 6.59763C1.64006 5.0389 1.94048 3.56773 2.80644 2.11408C7.13623 7.10553 12.5441 9.90776 19.0476 10.3281C19.1536 9.01455 19.0653 7.77106 19.3657 6.59763C20.7795 0.81805 27.9016 -1.31864 32.3727 2.63949C32.7969 3.00729 33.1503 3.12988 33.6628 2.93723C35.0413 2.42933 36.4198 1.95645 37.8512 1.44855C37.3741 3.09485 36.243 4.30331 34.8823 5.35415C34.8999 5.40669 34.9176 5.45923 34.9529 5.51177C35.6068 5.37166 36.2607 5.26658 36.8969 5.09144C37.5508 4.9163 38.2047 4.6711 39 4.4084C38.0633 5.79199 37.0736 6.91288 35.8542 7.8236C35.271 8.24394 35.0767 8.6993 35.0767 9.41737C35.1473 18.8749 29.1033 27.6493 20.1963 30.6967C13.6221 32.956 7.18927 32.4131 1.05687 29.0329C0.862471 28.9278 0.668059 28.7877 0.491333 28.6651C0.491333 28.6301 0.491333 28.5776 0.491333 28.5075Z" fill="white"/>
</svg>
